<?xml version="1.0" standalone="no"?>
<!DOCTYPE svg PUBLIC "-//W3C//DTD SVG 20010904//EN"
 "http://www.w3.org/TR/2001/REC-SVG-20010904/DTD/svg10.dtd">
<svg version="1.0" xmlns="http://www.w3.org/2000/svg"
 width="500.000000pt" height="500.000000pt" viewBox="0 0 500.000000 500.000000"
 preserveAspectRatio="xMidYMid meet">

<g transform="translate(0.000000,500.000000) scale(0.100000,-0.100000)"
fill="#000000" stroke="none">
<path d="M3996 3917 c-17 -18 -50 -71 -73 -118 -122 -249 -131 -467 -33 -809
41 -140 47 -222 26 -340 -15 -83 -17 -168 -14 -678 l3 -584 28 -24 c36 -31 78
-31 114 0 l28 24 0 1249 c0 686 -3 1260 -7 1274 -12 42 -36 44 -72 6z"/>
<path d="M1127 3794 c-3 -16 -11 -117 -17 -224 -6 -107 -14 -210 -16 -227 -6
-43 -37 -60 -68 -40 -21 15 -23 25 -35 224 -7 114 -16 226 -20 248 -6 36 -8
37 -13 15 -6 -22 -21 -220 -31 -425 -5 -87 8 -186 29 -227 9 -17 34 -51 57
-75 l42 -46 5 -814 5 -815 28 -24 c39 -33 81 -31 118 5 l29 29 0 815 0 815 36
43 c68 81 69 87 68 269 -2 187 -21 461 -33 473 -13 13 -40 -267 -41 -420 0
-65 -2 -74 -24 -88 -25 -17 -51 -12 -60 12 -4 8 -11 90 -16 182 -16 279 -29
365 -43 295z"/>
<path d="M2455 3744 c-292 -34 -518 -136 -715 -321 -193 -181 -307 -385 -361
-645 -30 -145 -23 -386 15 -531 158 -609 750 -995 1367 -891 493 83 890 469
985 959 20 104 23 313 5 416 -28 168 -98 346 -188 482 -107 162 -313 341 -482
419 -198 91 -437 133 -626 112z m323 -265 c345 -80 623 -351 713 -694 26 -102
36 -296 20 -391 -38 -219 -136 -402 -297 -552 -146 -137 -322 -219 -533 -248
-114 -16 -128 -16 -242 0 -215 30 -395 117 -548 266 -128 124 -212 271 -263
458 -31 113 -31 355 0 465 45 163 137 322 252 437 237 238 574 335 898 259z"/>
<path d="M2490 3383 c-275 -22 -544 -199 -669 -443 -79 -154 -107 -282 -97
-445 24 -400 305 -711 706 -781 355 -61 724 127 883 451 66 135 88 230 88 385
0 445 -346 807 -796 833 -38 2 -90 2 -115 0z"/>
</g>
</svg>
